<svg xmlns="http://www.w3.org/2000/svg" version="1.1" xmlns:xlink="http://www.w3.org/1999/xlink" xmlns:svgjs="http://svgjs.dev/svgjs" width="1000" height="103" viewBox="0 0 1000 103"><g transform="matrix(1,0,0,1,-0.6060346706522068,-0.40812122332228995)"><svg viewBox="0 0 396 41" data-background-color="#ffffff" preserveAspectRatio="xMidYMid meet" height="103" width="1000" xmlns="http://www.w3.org/2000/svg" xmlns:xlink="http://www.w3.org/1999/xlink"><g id="tight-bounds" transform="matrix(1,0,0,1,0.23998976969710384,0.16245602093411549)"><svg viewBox="0 0 395.52 40.6750866744656" height="40.6750866744656" width="395.52"><g><svg viewBox="0 0 395.52 40.6750866744656" height="40.6750866744656" width="395.52"><g><svg viewBox="0 0 395.52 40.6750866744656" height="40.6750866744656" width="395.52"><g id="textblocktransform"><svg viewBox="0 0 395.52 40.6750866744656" height="40.6750866744656" width="395.52" id="textblock"><g><svg viewBox="0 0 395.52 40.6750866744656" height="40.6750866744656" width="395.52"><g transform="matrix(1,0,0,1,0,0)"><svg width="395.52" viewBox="1.7000000476837158 -47 470.0999755859375 48.349998474121094" height="40.6750866744656" data-palette-color="#ffffff"><path d="M16.35 0.4Q9.7 0.4 5.7-2.13 1.7-4.65 1.7-9.85L1.7-9.85Q1.7-12.6 2.65-14.05 3.6-15.5 5.45-15.5L5.45-15.5Q6.8-15.5 7.65-14.8 8.5-14.1 8.5-13L8.5-13Q8.5-12 8.35-11.25L8.35-11.25Q8.35-11.05 8.28-10.55 8.2-10.05 8.2-9.5L8.2-9.5Q8.2-7.25 10.48-6.15 12.75-5.05 16.85-5.05L16.85-5.05Q21.1-5.05 23.5-6.58 25.9-8.1 25.9-10.85L25.9-10.85Q25.9-12.55 24.8-13.78 23.7-15 22.05-15.83 20.4-16.65 17.4-17.85L17.4-17.85Q13.55-19.35 11.13-20.7 8.7-22.05 6.98-24.38 5.25-26.7 5.25-30.15L5.25-30.15Q5.25-33.75 7.18-36.55 9.1-39.35 12.73-40.9 16.35-42.45 21.25-42.45L21.25-42.45Q24.9-42.45 27.95-41.38 31-40.3 32.83-38.1 34.65-35.9 34.65-32.7L34.65-32.7Q34.65-29.55 33.7-27.95 32.75-26.35 30.9-26.35L30.9-26.35Q29.6-26.35 28.73-27.15 27.85-27.95 27.85-29.05L27.85-29.05Q27.85-30 28-30.8L28-30.8Q28.15-32.3 28.15-32.7L28.15-32.7Q28.15-34.8 26.1-35.9 24.05-37 21-37L21-37Q16.7-37 14.43-35.43 12.15-33.85 12.15-31L12.15-31Q12.15-29.1 13.33-27.75 14.5-26.4 16.25-25.5 18-24.6 21.15-23.35L21.15-23.35Q24.95-21.8 27.25-20.55 29.55-19.3 31.18-17.15 32.8-15 32.8-11.85L32.8-11.85Q32.8-5.95 28.33-2.78 23.85 0.4 16.35 0.4L16.35 0.4ZM59.35-11.15Q60-11.15 60.37-10.55 60.75-9.95 60.75-8.9L60.75-8.9Q60.75-6.9 59.8-5.8L59.8-5.8Q57.95-3.55 54.57-1.65 51.2 0.25 47.35 0.25L47.35 0.25Q42.1 0.25 39.2-2.6 36.3-5.45 36.3-10.4L36.3-10.4Q36.3-13.85 37.75-16.82 39.2-19.8 41.77-21.55 44.35-23.3 47.6-23.3L47.6-23.3Q50.5-23.3 52.25-21.58 54-19.85 54-16.9L54-16.9Q54-13.45 51.52-10.98 49.05-8.5 43.15-7.05L43.15-7.05Q44.4-4.75 47.9-4.75L47.9-4.75Q50.15-4.75 53.02-6.33 55.9-7.9 58-10.45L58-10.45Q58.6-11.15 59.35-11.15L59.35-11.15ZM46.75-18.4Q44.9-18.4 43.62-16.25 42.35-14.1 42.35-11.05L42.35-11.05 42.35-10.95Q45.3-11.65 47-13.05 48.7-14.45 48.7-16.3L48.7-16.3Q48.7-17.25 48.17-17.82 47.65-18.4 46.75-18.4L46.75-18.4ZM66.25 0.25Q61.34 0.25 58.62-2.53 55.9-5.3 55.9-9.85L55.9-9.85Q55.9-13.9 57.5-16.95 59.09-20 61.65-21.65 64.2-23.3 67-23.3L67-23.3Q69.75-23.3 71.27-21.68 72.8-20.05 72.8-17.5L72.8-17.5Q72.8-15.4 71.87-13.95 70.95-12.5 69.45-12.5L69.45-12.5Q68.5-12.5 67.92-12.95 67.34-13.4 67.34-14.2L67.34-14.2Q67.34-14.55 67.45-15 67.55-15.45 67.59-15.65L67.59-15.65Q67.84-16.4 67.84-17.05L67.84-17.05Q67.84-17.7 67.52-18.05 67.2-18.4 66.59-18.4L66.59-18.4Q65.45-18.4 64.45-17.38 63.45-16.35 62.84-14.6 62.25-12.85 62.25-10.75L62.25-10.75Q62.25-4.95 67.3-4.95L67.3-4.95Q69.34-4.95 71.72-6.33 74.09-7.7 76.4-10.45L76.4-10.45Q77-11.15 77.75-11.15L77.75-11.15Q78.4-11.15 78.77-10.55 79.15-9.95 79.15-8.9L79.15-8.9Q79.15-7 78.2-5.8L78.2-5.8Q75.84-2.9 72.57-1.33 69.3 0.25 66.25 0.25L66.25 0.25ZM100.59-15.35Q101.24-15.35 101.59-14.7 101.94-14.05 101.94-13.05L101.94-13.05Q101.94-10.65 100.49-10.2L100.49-10.2Q97.49-9.15 93.89-9L93.89-9Q92.94-4.8 90.14-2.27 87.34 0.25 83.79 0.25L83.79 0.25Q80.79 0.25 78.67-1.2 76.54-2.65 75.44-5.05 74.34-7.45 74.34-10.25L74.34-10.25Q74.34-14.05 75.79-17.03 77.24-20 79.79-21.68 82.34-23.35 85.44-23.35L85.44-23.35Q89.24-23.35 91.57-20.73 93.89-18.1 94.29-14.25L94.29-14.25Q96.64-14.4 99.89-15.25L99.89-15.25Q100.29-15.35 100.59-15.35L100.59-15.35ZM84.19-5.05Q85.79-5.05 86.97-6.35 88.14-7.65 88.54-10.1L88.54-10.1Q86.99-11.15 86.17-12.85 85.34-14.55 85.34-16.45L85.34-16.45Q85.34-17.25 85.49-18.05L85.49-18.05 85.24-18.05Q83.24-18.05 81.92-16.13 80.59-14.2 80.59-10.7L80.59-10.7Q80.59-7.95 81.67-6.5 82.74-5.05 84.19-5.05L84.19-5.05ZM101.19 0.25Q99.29 0.25 98.52-1.75 97.74-3.75 97.74-8.15L97.74-8.15Q97.74-14.65 99.59-20.5L99.59-20.5Q100.04-21.95 101.07-22.63 102.09-23.3 103.94-23.3L103.94-23.3Q104.94-23.3 105.34-23.05 105.74-22.8 105.74-22.1L105.74-22.1Q105.74-21.3 104.99-18.5L104.99-18.5Q104.49-16.5 104.19-15 103.89-13.5 103.69-11.3L103.69-11.3Q105.34-15.6 107.39-18.3 109.44-21 111.42-22.15 113.39-23.3 115.04-23.3L115.04-23.3Q118.29-23.3 118.29-20.05L118.29-20.05Q118.29-18.1 117.19-13L117.19-13Q116.24-8.65 116.24-7.25L116.24-7.25Q116.24-5.25 117.69-5.25L117.69-5.25Q118.69-5.25 120.07-6.48 121.44-7.7 123.74-10.45L123.74-10.45Q124.34-11.15 125.09-11.15L125.09-11.15Q125.74-11.15 126.12-10.55 126.49-9.95 126.49-8.9L126.49-8.9Q126.49-6.9 125.54-5.8L125.54-5.8Q123.39-3.15 120.92-1.45 118.44 0.25 115.29 0.25L115.29 0.25Q112.74 0.25 111.44-1.23 110.14-2.7 110.14-5.5L110.14-5.5Q110.14-6.9 110.84-10.5L110.84-10.5Q111.49-13.65 111.49-14.85L111.49-14.85Q111.49-15.65 110.94-15.65L110.94-15.65Q110.29-15.65 109.12-13.98 107.94-12.3 106.72-9.55 105.49-6.8 104.74-3.75L104.74-3.75Q104.19-1.4 103.47-0.58 102.74 0.25 101.19 0.25L101.19 0.25ZM150.84-11.15Q151.49-11.15 151.86-10.55 152.24-9.95 152.24-8.9L152.24-8.9Q152.24-6.9 151.29-5.8L151.29-5.8Q149.24-3.3 146.79-1.53 144.34 0.25 141.94 0.25L141.94 0.25Q138.14 0.25 136.14-4.2L136.14-4.2Q134.04-1.55 132.46-0.65 130.89 0.25 128.79 0.25L128.79 0.25Q125.74 0.25 123.76-2.02 121.79-4.3 121.79-7.95L121.79-7.95Q121.79-11.95 123.49-15.38 125.19-18.8 128.16-20.98 131.14-23.15 134.84-23.55L134.84-23.55Q135.79-33.25 138.46-40.13 141.14-47 145.49-47L145.49-47Q147.64-47 149.06-45.05 150.49-43.1 150.49-39.15L150.49-39.15Q150.49-33.55 147.74-26.05 144.99-18.55 140.39-10.65L140.39-10.65Q140.59-7.75 141.26-6.5 141.94-5.25 142.99-5.25L142.99-5.25Q144.34-5.25 145.74-6.45 147.14-7.65 149.49-10.45L149.49-10.45Q150.09-11.15 150.84-11.15L150.84-11.15ZM144.94-42.1Q143.99-42.1 143.04-38.73 142.09-35.35 141.41-29.9 140.74-24.45 140.44-18.5L140.44-18.5Q146.04-30.7 146.04-38.1L146.04-38.1Q146.04-40 145.71-41.05 145.39-42.1 144.94-42.1L144.94-42.1ZM130.54-4.8Q131.49-4.8 132.44-5.58 133.39-6.35 134.84-8.45L134.84-8.45Q134.34-11.15 134.34-14.5L134.34-14.5Q134.34-15.7 134.44-18.4L134.44-18.4Q131.69-17.55 129.86-14.73 128.04-11.9 128.04-8.45L128.04-8.45Q128.04-4.8 130.54-4.8L130.54-4.8ZM175.94-11.15Q176.59-11.15 176.96-10.55 177.34-9.95 177.34-8.9L177.34-8.9Q177.34-6.9 176.39-5.8L176.39-5.8Q174.09-3.15 171.66-1.45 169.24 0.25 166.14 0.25L166.14 0.25Q163.59 0.25 162.29-1.23 160.99-2.7 160.99-5.5L160.99-5.5Q160.99-6.9 161.69-10.5L161.69-10.5Q162.34-13.65 162.34-14.85L162.34-14.85Q162.34-15.65 161.79-15.65L161.79-15.65Q161.14-15.65 159.94-13.98 158.74-12.3 157.54-9.55 156.34-6.8 155.59-3.75L155.59-3.75Q154.64 0.25 150.89 0.25L150.89 0.25Q149.39 0.25 148.91-0.83 148.44-1.9 148.44-4.7L148.44-4.7Q148.44-6.3 148.49-7.25L148.49-7.25 148.54-11.25Q148.54-18.95 150.11-27.3 151.69-35.65 154.76-41.33 157.84-47 162.14-47L162.14-47Q164.44-47 165.86-45.03 167.29-43.05 167.29-39.9L167.29-39.9Q167.29-34.85 164.34-29.43 161.39-24 154.74-16.75L154.74-16.75Q154.59-14.15 154.59-11.4L154.59-11.4Q156.24-15.65 158.26-18.32 160.29-21 162.26-22.15 164.24-23.3 165.89-23.3L165.89-23.3Q169.14-23.3 169.14-20.05L169.14-20.05Q169.14-18.1 168.04-13L168.04-13Q167.09-8.65 167.09-7.25L167.09-7.25Q167.09-5.25 168.54-5.25L168.54-5.25Q169.54-5.25 170.91-6.48 172.29-7.7 174.59-10.45L174.59-10.45Q175.19-11.15 175.94-11.15L175.94-11.15ZM161.09-42.05Q160.19-42.05 159.09-39.48 157.99-36.9 156.96-32.52 155.94-28.15 155.29-23L155.29-23Q158.39-26.65 160.41-30.95 162.44-35.25 162.44-38.75L162.44-38.75Q162.44-40.35 162.09-41.2 161.74-42.05 161.09-42.05L161.09-42.05ZM179.43 0.25Q176.33 0.25 174.48-2 172.63-4.25 172.63-7.9L172.63-7.9Q172.63-11.9 174.48-15.48 176.33-19.05 179.41-21.23 182.48-23.4 185.93-23.4L185.93-23.4Q187.03-23.4 187.41-22.98 187.78-22.55 188.03-21.45L188.03-21.45Q189.08-21.65 190.23-21.65L190.23-21.65Q192.68-21.65 192.68-19.9L192.68-19.9Q192.68-18.85 191.93-14.9L191.93-14.9Q190.78-9.15 190.78-6.9L190.78-6.9Q190.78-6.15 191.16-5.7 191.53-5.25 192.13-5.25L192.13-5.25Q193.08-5.25 194.43-6.48 195.78-7.7 198.08-10.45L198.08-10.45Q198.68-11.15 199.43-11.15L199.43-11.15Q200.08-11.15 200.46-10.55 200.83-9.95 200.83-8.9L200.83-8.9Q200.83-6.9 199.88-5.8L199.88-5.8Q197.83-3.25 195.53-1.5 193.23 0.25 191.08 0.25L191.08 0.25Q189.43 0.25 188.06-0.88 186.68-2 185.98-3.95L185.98-3.95Q183.38 0.25 179.43 0.25L179.43 0.25ZM181.23-4.8Q182.33-4.8 183.33-6.1 184.33-7.4 184.78-9.55L184.78-9.55 186.63-18.75Q184.53-18.7 182.76-17.18 180.98-15.65 179.93-13.15 178.88-10.65 178.88-7.85L178.88-7.85Q178.88-6.3 179.51-5.55 180.13-4.8 181.23-4.8L181.23-4.8ZM200.33 0.25Q198.43 0.25 197.66-1.75 196.88-3.75 196.88-8.15L196.88-8.15Q196.88-14.65 198.73-20.5L198.73-20.5Q199.18-21.95 200.21-22.63 201.23-23.3 203.08-23.3L203.08-23.3Q204.08-23.3 204.48-23.05 204.88-22.8 204.88-22.1L204.88-22.1Q204.88-21.3 204.13-18.5L204.13-18.5Q203.63-16.5 203.33-15 203.03-13.5 202.83-11.3L202.83-11.3Q204.48-15.6 206.53-18.3 208.58-21 210.56-22.15 212.53-23.3 214.18-23.3L214.18-23.3Q217.43-23.3 217.43-20.05L217.43-20.05Q217.43-18.1 216.33-13L216.33-13Q215.38-8.65 215.38-7.25L215.38-7.25Q215.38-5.25 216.83-5.25L216.83-5.25Q217.83-5.25 219.21-6.48 220.58-7.7 222.88-10.45L222.88-10.45Q223.48-11.15 224.23-11.15L224.23-11.15Q224.88-11.15 225.26-10.55 225.63-9.95 225.63-8.9L225.63-8.9Q225.63-6.9 224.68-5.8L224.68-5.8Q222.53-3.15 220.06-1.45 217.58 0.25 214.43 0.25L214.43 0.25Q211.88 0.25 210.58-1.23 209.28-2.7 209.28-5.5L209.28-5.5Q209.28-6.9 209.98-10.5L209.98-10.5Q210.63-13.65 210.63-14.85L210.63-14.85Q210.63-15.65 210.08-15.65L210.08-15.65Q209.43-15.65 208.26-13.98 207.08-12.3 205.86-9.55 204.63-6.8 203.88-3.75L203.88-3.75Q203.33-1.4 202.61-0.58 201.88 0.25 200.33 0.25L200.33 0.25ZM249.98-11.15Q250.63-11.15 251-10.55 251.38-9.95 251.38-8.9L251.38-8.9Q251.38-6.9 250.43-5.8L250.43-5.8Q248.38-3.3 245.93-1.53 243.48 0.25 241.08 0.25L241.08 0.25Q237.28 0.25 235.28-4.2L235.28-4.2Q233.18-1.55 231.6-0.65 230.03 0.25 227.93 0.25L227.93 0.25Q224.88 0.25 222.9-2.02 220.93-4.3 220.93-7.95L220.93-7.95Q220.93-11.95 222.63-15.38 224.33-18.8 227.3-20.98 230.28-23.15 233.98-23.55L233.98-23.55Q234.93-33.25 237.6-40.13 240.28-47 244.63-47L244.63-47Q246.78-47 248.2-45.05 249.63-43.1 249.63-39.15L249.63-39.15Q249.63-33.55 246.88-26.05 244.13-18.55 239.53-10.65L239.53-10.65Q239.73-7.75 240.4-6.5 241.08-5.25 242.13-5.25L242.13-5.25Q243.48-5.25 244.88-6.45 246.28-7.65 248.63-10.45L248.63-10.45Q249.23-11.15 249.98-11.15L249.98-11.15ZM244.08-42.1Q243.13-42.1 242.18-38.73 241.23-35.35 240.55-29.9 239.88-24.45 239.58-18.5L239.58-18.5Q245.18-30.7 245.18-38.1L245.18-38.1Q245.18-40 244.85-41.05 244.53-42.1 244.08-42.1L244.08-42.1ZM229.68-4.8Q230.63-4.8 231.58-5.58 232.53-6.35 233.98-8.45L233.98-8.45Q233.48-11.15 233.48-14.5L233.48-14.5Q233.48-15.7 233.58-18.4L233.58-18.4Q230.83-17.55 229-14.73 227.18-11.9 227.18-8.45L227.18-8.45Q227.18-4.8 229.68-4.8L229.68-4.8ZM300.22-41.5Q301.77-41.2 302.55-40.45 303.32-39.7 303.32-38.7L303.32-38.7Q303.32-37.05 302.4-36.3 301.47-35.55 299.47-35.7L299.47-35.7Q294.97-36.05 292.45-36.18 289.92-36.3 285.82-36.35L285.82-36.35Q283.97-27.15 282.42-17.85L282.42-17.85Q281.87-14.45 281.27-9.98 280.67-5.5 280.47-2.75L280.47-2.75Q280.37-1.3 279.27-0.53 278.17 0.25 276.62 0.25L276.62 0.25Q274.97 0.25 274.07-0.55 273.17-1.35 273.17-2.65L273.17-2.65Q273.17-3.85 273.55-6.63 273.92-9.4 274.42-12.45L274.42-12.45Q274.97-15.5 275.27-17.75L275.27-17.75Q275.82-21.55 276.52-25.3 277.22-29.05 277.92-32.4L277.92-32.4Q278.07-33.15 278.27-34.13 278.47-35.1 278.72-36.3L278.72-36.3Q273.82-36.15 271.02-35.5 268.22-34.85 267.05-33.68 265.87-32.5 265.87-30.65L265.87-30.65Q265.87-28.95 266.87-27.4L266.87-27.4Q267.07-27.05 267.07-26.65L267.07-26.65Q267.07-25.7 265.95-24.88 264.82-24.05 263.62-24.05L263.62-24.05Q262.77-24.05 262.22-24.55L262.22-24.55Q261.22-25.4 260.57-26.98 259.92-28.55 259.92-30.55L259.92-30.55Q259.92-34.8 262.7-37.38 265.47-39.95 271.15-41.15 276.82-42.35 285.72-42.35L285.72-42.35Q291.22-42.35 294.5-42.15 297.77-41.95 300.22-41.5L300.22-41.5ZM297.47 0.25Q295.57 0.25 294.8-1.75 294.02-3.75 294.02-8.15L294.02-8.15Q294.02-14.65 295.87-20.5L295.87-20.5Q296.32-21.95 297.35-22.63 298.37-23.3 300.22-23.3L300.22-23.3Q301.22-23.3 301.62-23.05 302.02-22.8 302.02-22.1L302.02-22.1Q302.02-21.3 301.27-18.5L301.27-18.5Q300.77-16.5 300.47-15 300.17-13.5 299.97-11.3L299.97-11.3Q301.62-15.6 303.67-18.3 305.72-21 307.7-22.15 309.67-23.3 311.32-23.3L311.32-23.3Q314.57-23.3 314.57-20.05L314.57-20.05Q314.57-19.4 314.12-16.9L314.12-16.9Q313.72-14.9 313.72-14.4L313.72-14.4Q313.72-12.65 314.97-12.65L314.97-12.65Q316.37-12.65 318.57-14.85L318.57-14.85Q319.22-15.5 319.92-15.5L319.92-15.5Q320.57-15.5 320.95-14.93 321.32-14.35 321.32-13.4L321.32-13.4Q321.32-11.55 320.32-10.5L320.32-10.5Q318.92-9.05 317.05-8.03 315.17-7 313.07-7L313.07-7Q310.42-7 309.05-8.35 307.67-9.7 307.67-12L307.67-12Q307.67-12.75 307.82-13.5L307.82-13.5Q307.92-14.5 307.92-14.85L307.92-14.85Q307.92-15.65 307.37-15.65L307.37-15.65Q306.62-15.65 305.4-13.98 304.17-12.3 302.97-9.55 301.77-6.8 301.02-3.75L301.02-3.75Q300.47-1.4 299.75-0.58 299.02 0.25 297.47 0.25L297.47 0.25ZM338.97-11.15Q339.62-11.15 339.99-10.55 340.37-9.95 340.37-8.9L340.37-8.9Q340.37-6.9 339.42-5.8L339.42-5.8Q337.57-3.55 334.19-1.65 330.82 0.25 326.97 0.25L326.97 0.25Q321.72 0.25 318.82-2.6 315.92-5.45 315.92-10.4L315.92-10.4Q315.92-13.85 317.37-16.82 318.82-19.8 321.39-21.55 323.97-23.3 327.22-23.3L327.22-23.3Q330.12-23.3 331.87-21.58 333.62-19.85 333.62-16.9L333.62-16.9Q333.62-13.45 331.14-10.98 328.67-8.5 322.77-7.05L322.77-7.05Q324.02-4.75 327.52-4.75L327.52-4.75Q329.77-4.75 332.64-6.33 335.52-7.9 337.62-10.45L337.62-10.45Q338.22-11.15 338.97-11.15L338.97-11.15ZM326.37-18.4Q324.52-18.4 323.24-16.25 321.97-14.1 321.97-11.05L321.97-11.05 321.97-10.95Q324.92-11.65 326.62-13.05 328.32-14.45 328.32-16.3L328.32-16.3Q328.32-17.25 327.79-17.82 327.27-18.4 326.37-18.4L326.37-18.4ZM342.22 0.25Q339.12 0.25 337.27-2 335.42-4.25 335.42-7.9L335.42-7.9Q335.42-11.9 337.27-15.48 339.12-19.05 342.19-21.23 345.27-23.4 348.72-23.4L348.72-23.4Q349.82-23.4 350.19-22.98 350.57-22.55 350.82-21.45L350.82-21.45Q351.87-21.65 353.02-21.65L353.02-21.65Q355.47-21.65 355.47-19.9L355.47-19.9Q355.47-18.85 354.72-14.9L354.72-14.9Q353.57-9.15 353.57-6.9L353.57-6.9Q353.57-6.15 353.94-5.7 354.32-5.25 354.92-5.25L354.92-5.25Q355.87-5.25 357.22-6.48 358.57-7.7 360.87-10.45L360.87-10.45Q361.47-11.15 362.22-11.15L362.22-11.15Q362.87-11.15 363.24-10.55 363.62-9.95 363.62-8.9L363.62-8.9Q363.62-6.9 362.67-5.8L362.67-5.8Q360.62-3.25 358.32-1.5 356.02 0.25 353.87 0.25L353.87 0.25Q352.22 0.25 350.84-0.88 349.47-2 348.77-3.95L348.77-3.95Q346.17 0.25 342.22 0.25L342.22 0.25ZM344.02-4.8Q345.12-4.8 346.12-6.1 347.12-7.4 347.57-9.55L347.57-9.55 349.42-18.75Q347.32-18.7 345.54-17.18 343.77-15.65 342.72-13.15 341.67-10.65 341.67-7.85L341.67-7.85Q341.67-6.3 342.29-5.55 342.92-4.8 344.02-4.8L344.02-4.8ZM368.86 1.35Q366.26 1.35 364.89 0.15 363.51-1.05 363.51-2.55L363.51-2.55Q363.51-3.85 364.46-4.8 365.41-5.75 367.26-5.75L367.26-5.75Q367.91-5.75 368.79-5.63 369.66-5.5 370.11-5.45L370.11-5.45Q370.06-6.75 369.54-7.9 369.01-9.05 368.21-10.13 367.41-11.2 366.71-12L366.71-12Q365.16-9.05 363.64-7.1 362.11-5.15 360.31-3.4L360.31-3.4Q359.41-2.5 358.41-2.5L358.41-2.5Q357.61-2.5 357.11-3.08 356.61-3.65 356.61-4.5L356.61-4.5Q356.61-5.5 357.31-6.35L357.31-6.35 357.96-7.15Q360.71-10.55 362.11-12.75L362.11-12.75Q362.96-14.2 364.11-16.63 365.26-19.05 366.36-21.65L366.36-21.65Q367.31-23.85 370.31-23.85L370.31-23.85Q371.71-23.85 372.26-23.6 372.81-23.35 372.81-22.8L372.81-22.8Q372.81-22.5 372.61-21.85 372.41-21.2 372.06-20.55L372.06-20.55Q371.16-18.75 371.16-17.5L371.16-17.5Q371.16-16.75 371.69-15.85 372.21-14.95 373.31-13.6L373.31-13.6Q374.91-11.5 375.74-10.03 376.56-8.55 376.56-6.8L376.56-6.8Q376.56-6.3 376.46-5.4L376.46-5.4Q378.91-6.35 382.21-10.45L382.21-10.45Q382.81-11.15 383.56-11.15L383.56-11.15Q384.21-11.15 384.59-10.55 384.96-9.95 384.96-8.9L384.96-8.9Q384.96-7 384.01-5.8L384.01-5.8Q381.51-2.7 379.24-1.58 376.96-0.45 373.61-0.35L373.61-0.35Q371.61 1.35 368.86 1.35L368.86 1.35ZM386.01 0.25Q383.76 0.25 382.34-1.83 380.91-3.9 380.91-7L380.91-7Q380.91-10.75 381.41-13.88 381.91-17 383.06-20.5L383.06-20.5Q383.56-22 384.46-22.65 385.36-23.3 387.31-23.3L387.31-23.3Q388.41-23.3 388.84-22.95 389.26-22.6 389.26-21.9L389.26-21.9Q389.26-21.5 388.71-19.2L388.71-19.2Q388.21-17.35 387.91-15.85L387.91-15.85Q386.91-10.6 386.91-8.85L386.91-8.85Q386.91-7.8 387.16-7.38 387.41-6.95 387.96-6.95L387.96-6.95Q388.71-6.95 389.84-8.45 390.96-9.95 392.24-13 393.51-16.05 394.71-20.5L394.71-20.5Q395.11-22 395.94-22.65 396.76-23.3 398.41-23.3L398.41-23.3Q399.56-23.3 400.01-23.03 400.46-22.75 400.46-22L400.46-22Q400.46-20.75 399.21-15.15L399.21-15.15Q397.81-8.75 397.81-7.25L397.81-7.25Q397.81-6.3 398.21-5.78 398.61-5.25 399.26-5.25L399.26-5.25Q400.26-5.25 401.64-6.48 403.01-7.7 405.31-10.45L405.31-10.45Q405.91-11.15 406.66-11.15L406.66-11.15Q407.31-11.15 407.69-10.55 408.06-9.95 408.06-8.9L408.06-8.9Q408.06-6.9 407.11-5.8L407.11-5.8Q404.96-3.15 402.49-1.45 400.01 0.25 396.86 0.25L396.86 0.25Q394.46 0.25 393.34-1.6 392.21-3.45 392.21-6.8L392.21-6.8Q391.36-3.4 389.66-1.58 387.96 0.25 386.01 0.25L386.01 0.25ZM407.56 0.25Q405.66 0.25 404.88-1.75 404.11-3.75 404.11-8.15L404.11-8.15Q404.11-14.65 405.96-20.5L405.96-20.5Q406.41-21.95 407.43-22.63 408.46-23.3 410.31-23.3L410.31-23.3Q411.31-23.3 411.71-23.05 412.11-22.8 412.11-22.1L412.11-22.1Q412.11-21.3 411.36-18.5L411.36-18.5Q410.86-16.5 410.56-15 410.26-13.5 410.06-11.3L410.06-11.3Q411.71-15.6 413.76-18.3 415.81-21 417.78-22.15 419.76-23.3 421.41-23.3L421.41-23.3Q424.66-23.3 424.66-20.05L424.66-20.05Q424.66-19.4 424.21-16.9L424.21-16.9Q423.81-14.9 423.81-14.4L423.81-14.4Q423.81-12.65 425.06-12.65L425.06-12.65Q426.46-12.65 428.66-14.85L428.66-14.85Q429.31-15.5 430.01-15.5L430.01-15.5Q430.66-15.5 431.03-14.93 431.41-14.35 431.41-13.4L431.41-13.4Q431.41-11.55 430.41-10.5L430.41-10.5Q429.01-9.05 427.13-8.03 425.26-7 423.16-7L423.16-7Q420.51-7 419.13-8.35 417.76-9.7 417.76-12L417.76-12Q417.76-12.75 417.91-13.5L417.91-13.5Q418.01-14.5 418.01-14.85L418.01-14.85Q418.01-15.65 417.46-15.65L417.46-15.65Q416.71-15.65 415.48-13.98 414.26-12.3 413.06-9.55 411.86-6.8 411.11-3.75L411.11-3.75Q410.56-1.4 409.83-0.58 409.11 0.25 407.56 0.25L407.56 0.25ZM449.06-11.15Q449.71-11.15 450.08-10.55 450.46-9.95 450.46-8.9L450.46-8.9Q450.46-6.9 449.51-5.8L449.51-5.8Q447.66-3.55 444.28-1.65 440.91 0.25 437.06 0.25L437.06 0.25Q431.81 0.25 428.91-2.6 426.01-5.45 426.01-10.4L426.01-10.4Q426.01-13.85 427.46-16.82 428.91-19.8 431.48-21.55 434.06-23.3 437.31-23.3L437.31-23.3Q440.21-23.3 441.96-21.58 443.71-19.85 443.71-16.9L443.71-16.9Q443.71-13.45 441.23-10.98 438.76-8.5 432.86-7.05L432.86-7.05Q434.11-4.75 437.61-4.75L437.61-4.75Q439.86-4.75 442.73-6.33 445.61-7.9 447.71-10.45L447.71-10.45Q448.31-11.15 449.06-11.15L449.06-11.15ZM436.46-18.4Q434.61-18.4 433.33-16.25 432.06-14.1 432.06-11.05L432.06-11.05 432.06-10.95Q435.01-11.65 436.71-13.05 438.41-14.45 438.41-16.3L438.41-16.3Q438.41-17.25 437.88-17.82 437.36-18.4 436.46-18.4L436.46-18.4ZM455.7 1.35Q453.1 1.35 451.73 0.15 450.35-1.05 450.35-2.55L450.35-2.55Q450.35-3.85 451.3-4.8 452.25-5.75 454.1-5.75L454.1-5.75Q454.75-5.75 455.63-5.63 456.5-5.5 456.95-5.45L456.95-5.45Q456.9-6.75 456.38-7.9 455.85-9.05 455.05-10.13 454.25-11.2 453.55-12L453.55-12Q452-9.05 450.48-7.1 448.95-5.15 447.15-3.4L447.15-3.4Q446.25-2.5 445.25-2.5L445.25-2.5Q444.45-2.5 443.95-3.08 443.45-3.65 443.45-4.5L443.45-4.5Q443.45-5.5 444.15-6.35L444.15-6.35 444.8-7.15Q447.55-10.55 448.95-12.75L448.95-12.75Q449.8-14.2 450.95-16.63 452.1-19.05 453.2-21.65L453.2-21.65Q454.15-23.85 457.15-23.85L457.15-23.85Q458.55-23.85 459.1-23.6 459.65-23.35 459.65-22.8L459.65-22.8Q459.65-22.5 459.45-21.85 459.25-21.2 458.9-20.55L458.9-20.55Q458-18.75 458-17.5L458-17.5Q458-16.75 458.53-15.85 459.05-14.95 460.15-13.6L460.15-13.6Q461.75-11.5 462.58-10.03 463.4-8.55 463.4-6.8L463.4-6.8Q463.4-6.3 463.3-5.4L463.3-5.4Q465.75-6.35 469.05-10.45L469.05-10.45Q469.65-11.15 470.4-11.15L470.4-11.15Q471.05-11.15 471.43-10.55 471.8-9.95 471.8-8.9L471.8-8.9Q471.8-7 470.85-5.8L470.85-5.8Q468.35-2.7 466.08-1.58 463.8-0.45 460.45-0.35L460.45-0.35Q458.45 1.35 455.7 1.35L455.7 1.35Z" opacity="1" transform="matrix(1,0,0,1,0,0)" fill="#ffffff" class="wordmark-text-0" data-fill-palette-color="primary" id="text-0"></path></svg></g></svg></g></svg></g></svg></g></svg></g><defs></defs></svg><rect width="395.52" height="40.6750866744656" fill="none" stroke="none" visibility="hidden"></rect></g></svg></g></svg>